<?xml version="1.0" encoding="UTF-8" standalone="no"?>
<!-- Created with Inkscape (http://www.inkscape.org/) -->

<svg
   xmlns:dc="http://purl.org/dc/elements/1.1/"
   xmlns:cc="http://creativecommons.org/ns#"
   xmlns:rdf="http://www.w3.org/1999/02/22-rdf-syntax-ns#"
   xmlns:svg="http://www.w3.org/2000/svg"
   xmlns="http://www.w3.org/2000/svg"
   xmlns:sodipodi="http://sodipodi.sourceforge.net/DTD/sodipodi-0.dtd"
   xmlns:inkscape="http://www.inkscape.org/namespaces/inkscape"
   width="136"
   height="29.609209"
   viewBox="0 0 35.983333 7.8341033"
   version="1.1"
   id="svg8"
   inkscape:version="0.92.0 r15299"
   sodipodi:docname="anaplan.svg">
  <defs
     id="defs2" />
  <sodipodi:namedview
     id="base"
     pagecolor="#ffffff"
     bordercolor="#666666"
     borderopacity="1.0"
     inkscape:pageopacity="0.0"
     inkscape:pageshadow="2"
     inkscape:zoom="6.6444444"
     inkscape:cx="67.5"
     inkscape:cy="14.304605"
     inkscape:document-units="mm"
     inkscape:current-layer="layer1"
     showgrid="false"
     fit-margin-top="0"
     fit-margin-left="0"
     fit-margin-right="0"
     fit-margin-bottom="0"
     units="px"
     inkscape:window-width="1280"
     inkscape:window-height="744"
     inkscape:window-x="-4"
     inkscape:window-y="-4"
     inkscape:window-maximized="1" />
  <metadata
     id="metadata5">
    <rdf:RDF>
      <cc:Work
         rdf:about="">
        <dc:format>image/svg+xml</dc:format>
        <dc:type
           rdf:resource="http://purl.org/dc/dcmitype/StillImage" />
        <dc:title></dc:title>
      </cc:Work>
    </rdf:RDF>
  </metadata>
  <g
     inkscape:label="Layer 1"
     inkscape:groupmode="layer"
     id="layer1"
     transform="translate(214.40699,-278.58759)">
    <path
       id="path10"
       d="m -202.01471,281.81815 v 3.01863 h -1.32027 v -2.60059 c 0,-0.62362 -0.29845,-0.94879 -0.80274,-0.94879 -0.5043,0 -0.82259,0.31856 -0.82259,0.94879 v 2.60059 h -1.32027 v -4.66407 h 1.04166 l 0.27861,0.66331 c 0.30506,-0.39132 0.69665,-0.74956 1.36657,-0.74956 0.99536,0 1.57903,0.66357 1.57903,1.73169 z m -9.67925,-3.09827 -2.58074,6.11003 h 1.79123 l 2.58074,-6.11003 z m 2.59398,1.3798 -0.92869,2.27542 h 1.89733 z m -0.5043,3.33058 0.59055,1.39991 h 1.92405 l -0.59055,-1.39991 z m 12.16052,-2.78633 c 0.34501,0.34502 0.50429,0.86254 0.50429,1.48617 v 2.70007 h -1.06151 l -0.21219,-0.5043 c -0.31856,0.35825 -0.76306,0.59055 -1.40653,0.59055 -0.87577,0 -1.59888,-0.50429 -1.59888,-1.42636 v -0.0198 c 0,-1.01494 0.77629,-1.48616 1.87749,-1.48616 0.47096,0 0.80936,0.0796 1.14115,0.19235 v -0.073 c 0,-0.55059 -0.33841,-0.84931 -1.00172,-0.84931 -0.47095,0 -0.81597,0.0863 -1.20068,0.22569 l -0.41142,-0.98187 c 0.51091,-0.22569 1.01494,-0.37147 1.80446,-0.37147 0.71649,-0.007 1.24063,0.18573 1.56554,0.51752 z m -0.74295,2.31511 c -0.22569,-0.1061 -0.52414,-0.17251 -0.84244,-0.17251 -0.56383,0 -0.91546,0.22569 -0.91546,0.64346 v 0.0199 c 0,0.35824 0.29845,0.56383 0.72311,0.56383 0.61701,0 1.03505,-0.33841 1.03505,-0.81598 v -0.23865 z m 7.1583,-0.46435 v 0.0199 c 0,1.55231 -1.01494,2.40823 -2.12302,2.40823 -0.70326,0 -1.14115,-0.31855 -1.45283,-0.69664 v 2.06322 h -1.32027 v -6.11669 h 1.03505 l 0.28522,0.67019 c 0.31856,-0.43127 0.76306,-0.75618 1.45283,-0.75618 1.08823,-2.6e-4 2.12302,0.85566 2.12302,2.40797 z m -1.32689,0 c 0,-0.77628 -0.52414,-1.28693 -1.14115,-1.28693 -0.617,0 -1.12791,0.51091 -1.12791,1.28693 v 0.0199 c 0,0.77628 0.51091,1.28693 1.12791,1.28693 0.61701,0 1.14115,-0.5043 1.14115,-1.28693 z m 12.22031,-2.40823 c -0.67019,0 -1.06151,0.35824 -1.36657,0.74956 l -0.27861,-0.66331 h -1.04166 v 4.6572 h 1.32027 v -2.59398 c 0,-0.62362 0.31856,-0.9488 0.82259,-0.9488 0.50403,0 0.80274,0.31856 0.80274,0.9488 v 2.60059 h 1.32028 v -3.01837 c 0,-1.06812 -0.58394,-1.73169 -1.57904,-1.73169 z m -4.20608,0.55747 c 0.34502,0.34502 0.5043,0.86254 0.5043,1.48617 v 2.70007 h -1.06151 l -0.2122,-0.5043 c -0.31856,0.35825 -0.76306,0.59055 -1.40652,0.59055 -0.87577,0 -1.59888,-0.50429 -1.59888,-1.42636 v -0.0198 c 0,-1.01494 0.77629,-1.48616 1.87748,-1.48616 0.47096,0 0.80936,0.0796 1.14115,0.19235 v -0.073 c 0,-0.55059 -0.3384,-0.84931 -1.00171,-0.84931 -0.47096,0 -0.81598,0.0863 -1.20068,0.22569 l -0.41143,-0.98187 c 0.51091,-0.22569 1.01494,-0.37147 1.80446,-0.37147 0.71649,-0.007 1.24063,0.18573 1.56554,0.51752 z m -0.74295,2.31511 c -0.22569,-0.1061 -0.52414,-0.17251 -0.84243,-0.17251 -0.56383,0 -0.91546,0.22569 -0.91546,0.64346 v 0.0199 c 0,0.35824 0.29845,0.56383 0.72311,0.56383 0.617,0 1.03505,-0.33841 1.03505,-0.81598 v -0.23865 z m -5.14826,1.87087 h 1.32027 v -6.11003 h -1.32027 z"
       inkscape:connector-curvature="0"
       style="fill:#0b2265;stroke-width:0.26458332" />
  </g>
</svg>
